<svg width="52" height="52" xmlns="http://www.w3.org/2000/svg" xmlns:xlink="http://www.w3.org/1999/xlink" xml:space="preserve" overflow="hidden"><g transform="translate(-939 -215)"><path d="M959.888 232.879C960.539 233.704 961.092 234.602 961.533 235.556 961.624 235.739 961.811 235.854 962.015 235.854L968.416 235.854C968.62 235.854 968.807 235.739 968.898 235.556 969.341 234.602 969.894 233.704 970.546 232.879 971.069 232.29 971.483 231.611 971.768 230.875 972.067 230.096 972.233 229.272 972.258 228.438L972.258 228.196C972.258 224.307 969.106 221.154 965.217 221.154 961.328 221.154 958.175 224.307 958.175 228.196L958.175 228.438C958.201 229.272 958.366 230.096 958.665 230.875 958.95 231.611 959.364 232.29 959.888 232.879ZM965.217 222.324C968.473 222.328 971.124 224.941 971.175 228.197L971.175 228.421C971.152 229.127 971.011 229.824 970.758 230.484 970.523 231.094 970.18 231.658 969.747 232.148 969.089 232.953 968.529 233.833 968.079 234.771L962.354 234.771C961.911 233.836 961.354 232.959 960.698 232.16 960.26 231.668 959.915 231.102 959.677 230.488 959.423 229.827 959.282 229.129 959.258 228.421L959.258 228.217C959.3 224.954 961.954 222.33 965.217 222.324Z" fill="#00B0F0"/><path d="M968.467 237.479C968.467 237.18 968.224 236.938 967.925 236.938L962.508 236.938C962.209 236.938 961.967 237.18 961.967 237.479 961.967 237.778 962.209 238.021 962.508 238.021L967.925 238.021C968.224 238.021 968.467 237.778 968.467 237.479Z" fill="#00B0F0"/><path d="M965.217 240.729C966.067 240.728 966.774 240.075 966.842 239.228L963.592 239.228C963.661 240.075 964.367 240.727 965.217 240.729Z" fill="#00B0F0"/><path d="M965.162 232.609 968.136 227.131 965.162 227.722 965.162 224.481 962.297 230.078 965.162 229.428 965.162 232.609Z" fill="#00B0F0"/><path d="M953.842 248.142C956.157 248.143 958.035 246.267 958.036 243.951 958.037 241.635 956.161 239.757 953.845 239.756 951.529 239.755 949.651 241.632 949.65 243.948 949.65 243.948 949.65 243.949 949.65 243.949 949.65 246.265 951.526 248.142 953.841 248.142 953.841 248.142 953.841 248.142 953.842 248.142ZM953.842 240.84C955.559 240.839 956.952 242.231 956.953 243.948 956.954 245.666 955.562 247.059 953.845 247.06 952.127 247.061 950.734 245.669 950.734 243.952 950.734 243.951 950.734 243.95 950.734 243.949 950.735 242.233 952.126 240.842 953.842 240.84Z" fill="#00B0F0"/><path d="M976.592 248.031C978.907 248.031 980.785 246.155 980.785 243.839 980.786 241.524 978.909 239.646 976.594 239.646 974.278 239.645 972.401 241.522 972.4 243.837 972.4 243.838 972.4 243.838 972.4 243.838 972.4 246.153 974.277 248.031 976.592 248.031ZM976.592 240.729C978.309 240.729 979.701 242.12 979.702 243.837 979.703 245.554 978.311 246.947 976.594 246.947 974.877 246.948 973.484 245.557 973.484 243.839 973.484 243.839 973.484 243.839 973.484 243.838 973.485 242.122 974.876 240.731 976.592 240.729Z" fill="#00B0F0"/><path d="M984.247 251.356C983.016 250.406 981.605 249.716 980.099 249.327 978.963 248.978 977.781 248.799 976.592 248.796 975.406 248.815 974.229 248.993 973.091 249.325 971.602 249.758 970.198 250.444 968.941 251.352 968.859 251.418 968.781 251.489 968.707 251.564 968.815 251.594 968.923 251.618 969.035 251.65 969.364 251.744 969.679 251.848 969.989 251.957 971.035 251.262 972.179 250.727 973.383 250.371 974.426 250.066 975.505 249.903 976.592 249.883 977.678 249.887 978.757 250.051 979.795 250.371 981.162 250.721 982.445 251.344 983.566 252.203 983.939 252.492 984.163 252.933 984.175 253.405L984.175 256.872 985.258 256.872 985.258 253.405C985.247 252.605 984.875 251.852 984.247 251.356Z" fill="#00B0F0"/><path d="M960.373 251.996C960.721 251.865 961.071 251.746 961.419 251.647 961.493 251.627 961.562 251.613 961.636 251.593 961.59 251.551 961.546 251.508 961.498 251.469 960.266 250.519 958.855 249.828 957.349 249.439 956.213 249.09 955.031 248.911 953.842 248.908 952.657 248.928 951.479 249.105 950.341 249.437 948.852 249.87 947.448 250.556 946.191 251.465 945.561 251.96 945.189 252.712 945.175 253.512L945.175 256.979 946.258 256.979 946.258 253.512C946.268 253.049 946.484 252.614 946.848 252.325 947.997 251.502 949.276 250.877 950.633 250.479 951.676 250.175 952.755 250.011 953.842 249.992 954.927 249.995 956.007 250.159 957.045 250.479 958.231 250.796 959.355 251.309 960.373 251.996Z" fill="#00B0F0"/><path d="M972.872 254.718C971.641 253.767 970.23 253.077 968.724 252.688 967.587 252.339 966.405 252.161 965.217 252.158 964.032 252.178 962.854 252.355 961.716 252.687 960.227 253.12 958.823 253.806 957.566 254.715 956.936 255.21 956.564 255.962 956.55 256.763L956.55 260.229 957.633 260.229 957.633 256.763C957.643 256.299 957.859 255.864 958.223 255.575 959.372 254.752 960.651 254.127 962.008 253.729 963.051 253.425 964.13 253.261 965.217 253.242 966.302 253.245 967.382 253.409 968.42 253.729 969.787 254.079 971.07 254.702 972.191 255.561 972.564 255.85 972.788 256.291 972.8 256.763L972.8 260.229 973.883 260.229 973.883 256.763C973.871 255.964 973.499 255.213 972.872 254.718Z" fill="#00B0F0"/><path d="M965.217 251.392C967.532 251.393 969.41 249.517 969.411 247.201 969.412 244.885 967.536 243.007 965.22 243.006 962.904 243.005 961.026 244.882 961.025 247.198 961.025 247.198 961.025 247.199 961.025 247.199 961.025 249.515 962.901 251.392 965.216 251.392 965.216 251.392 965.216 251.392 965.217 251.392ZM965.217 244.09C966.934 244.089 968.327 245.481 968.328 247.198 968.329 248.916 966.937 250.309 965.22 250.31 963.502 250.311 962.109 248.919 962.109 247.202 962.109 247.201 962.109 247.2 962.109 247.199 962.11 245.483 963.501 244.092 965.217 244.09Z" fill="#00B0F0"/></g></svg>