<svg width="52" height="52" xmlns="http://www.w3.org/2000/svg" xmlns:xlink="http://www.w3.org/1999/xlink" xml:space="preserve" overflow="hidden"><g transform="translate(31 -210)"><path d="M15.0417 220.357 14.5746 220.132 3.94758 215.015-24.3789 220.129-25.0157 220.244-25.0157 251.327-15.1736 256.839-14.7247 257.09-14.0903 256.97 15.0417 251.459 15.0417 220.357ZM3.79417 216.143 12.7667 220.464C12.7748 220.467 12.7742 220.472 12.7653 220.474L4.41254 222.054 4.41254 221.388 3.32921 221.388 3.32921 222.259-4.74796 223.787-14.5395 225.64-22.8793 220.969C-22.8865 220.965-22.8858 220.961-22.8776 220.959ZM-23.9324 250.693-23.9324 221.63C-23.9324 221.625-23.9288 221.623-23.9244 221.626L-15.1737 226.526-15.1737 255.588C-15.1737 255.593-15.1773 255.595-15.1818 255.593ZM13.9583 250.561-14.0904 255.868-14.0904 226.657 3.32921 223.362 3.32921 224.096 4.41254 224.096 4.41254 223.157 13.9583 221.351Z" fill="#00B0F0"/><path d="M8.83836 248.885 9.3082 247.909 11.2606 248.849 10.7908 249.825Z" fill="#00B0F0"/><path d="M5.42226 247.24 5.89199 246.264 7.84454 247.204 7.37482 248.18Z" fill="#00B0F0"/><path d="M3.32921 225.721 4.41254 225.721 4.41254 227.888 3.32921 227.888Z" fill="#00B0F0"/><path d="M3.32921 217.596 4.41254 217.596 4.41254 219.763 3.32921 219.763Z" fill="#00B0F0"/><path d="M3.32921 244.679 4.41254 244.679 4.41254 246.477 3.32921 246.477Z" fill="#00B0F0"/><path d="M3.32921 233.304 4.41254 233.304 4.41254 235.471 3.32921 235.471Z" fill="#00B0F0"/><path d="M3.32921 237.096 4.41254 237.096 4.41254 239.263 3.32921 239.263Z" fill="#00B0F0"/><path d="M3.32921 229.513 4.41254 229.513 4.41254 231.679 3.32921 231.679Z" fill="#00B0F0"/><path d="M3.32921 240.888 4.41254 240.888 4.41254 243.054 3.32921 243.054Z" fill="#00B0F0"/><path d="M-4.35144 246.827-2.21918 246.441-2.02664 247.507-4.1589 247.892Z" fill="#00B0F0"/><path d="M-11.8142 248.174-9.68193 247.789-9.48939 248.855-11.6217 249.24Z" fill="#00B0F0"/><path d="M-0.620113 246.153 1.51215 245.768 1.70469 246.834-0.42757 247.219Z" fill="#00B0F0"/><path d="M-8.08282 247.5-5.95055 247.115-5.75801 248.181-7.89027 248.566Z" fill="#00B0F0"/><path d="M-18.7823 249.432-16.65 249.047-16.4575 250.113-18.5897 250.498Z" fill="#00B0F0"/><path d="M-21.4002 249.905-20.3814 249.721-20.1889 250.787-21.2077 250.971Z" fill="#00B0F0"/></g></svg>