<svg width="51" height="52" xmlns="http://www.w3.org/2000/svg" xmlns:xlink="http://www.w3.org/1999/xlink" xml:space="preserve" overflow="hidden"><g transform="translate(-379 -450)"><path d="M17.5312 14.6551 15.7818 12.9057 15.0307 13.6568 17.5312 16.1574 22.6881 11.0006 21.9369 10.2494 17.5312 14.6551Z" fill="#00B0F0" transform="matrix(1 0 0 1.01961 379 450)"/><path d="M26.0312 13.2812 36.125 13.2812 36.125 14.3438 26.0312 14.3438Z" fill="#00B0F0" transform="matrix(1 0 0 1.01961 379 450)"/><path d="M17.5312 22.6238 15.7818 20.8744 15.0307 21.6256 17.5312 24.1262 22.6881 18.9693 21.9369 18.2182 17.5312 22.6238Z" fill="#00B0F0" transform="matrix(1 0 0 1.01961 379 450)"/><path d="M26.0312 21.25 36.125 21.25 36.125 22.3125 26.0312 22.3125Z" fill="#00B0F0" transform="matrix(1 0 0 1.01961 379 450)"/><path d="M17.5312 30.5926 15.7818 28.8432 15.0307 29.5943 17.5312 32.0949 22.6881 26.9381 21.9369 26.1869 17.5312 30.5926Z" fill="#00B0F0" transform="matrix(1 0 0 1.01961 379 450)"/><path d="M26.0312 29.2188 36.125 29.2188 36.125 30.2812 26.0312 30.2812Z" fill="#00B0F0" transform="matrix(1 0 0 1.01961 379 450)"/><path d="M17.5312 38.5613 15.7818 36.8119 15.0307 37.5631 17.5312 40.0637 22.6881 34.9068 21.9369 34.1557 17.5312 38.5613Z" fill="#00B0F0" transform="matrix(1 0 0 1.01961 379 450)"/><path d="M26.0312 37.1875 36.125 37.1875 36.125 38.25 26.0312 38.25Z" fill="#00B0F0" transform="matrix(1 0 0 1.01961 379 450)"/><path d="M9.5625 46.75 41.4375 46.75 41.4375 4.25 9.5625 4.25ZM10.625 5.3125 40.375 5.3125 40.375 45.6875 10.625 45.6875Z" fill="#00B0F0" transform="matrix(1 0 0 1.01961 379 450)"/></g></svg>