<svg width="52" height="52" xmlns="http://www.w3.org/2000/svg" xmlns:xlink="http://www.w3.org/1999/xlink" xml:space="preserve" overflow="hidden"><g transform="translate(26 -272)"><path d="M13.5417 303.958 13.5417 290.958 7.04167 290.958 7.04167 277.958-7.04167 277.958-7.04167 290.958-13.5417 290.958-13.5417 303.958-20.0417 303.958-20.0417 318.042 20.0417 318.042 20.0417 303.958ZM12.4583 292.042 12.4583 303.958 0.541668 303.958 0.541668 292.042 12.4583 292.042ZM-5.95833 279.042 5.95833 279.042 5.95833 290.958-5.95833 290.958ZM-12.4583 292.042-0.541666 292.042-0.541666 303.958-12.4583 303.958ZM-7.04167 316.958-18.9583 316.958-18.9583 305.042-7.04167 305.042ZM5.95833 316.958-5.95833 316.958-5.95833 305.042 5.95833 305.042ZM18.9583 316.958 7.04167 316.958 7.04167 305.042 18.9583 305.042Z" fill="#00B0F0"/><path d="M-4.33333 280.667-1.625 280.667-1.625 282.833-4.33333 282.833Z" fill="#00B0F0"/><path d="M-10.8333 293.667-8.125 293.667-8.125 295.833-10.8333 295.833Z" fill="#00B0F0"/><path d="M-17.3333 306.667-14.625 306.667-14.625 308.833-17.3333 308.833Z" fill="#00B0F0"/><path d="M-4.33333 306.667-1.625 306.667-1.625 308.833-4.33333 308.833Z" fill="#00B0F0"/><path d="M8.66667 306.667 11.375 306.667 11.375 308.833 8.66667 308.833Z" fill="#00B0F0"/><path d="M2.16667 293.667 4.875 293.667 4.875 295.833 2.16667 295.833Z" fill="#00B0F0"/></g></svg>