<svg width="52" height="52" xmlns="http://www.w3.org/2000/svg" xmlns:xlink="http://www.w3.org/1999/xlink" xml:space="preserve" overflow="hidden"><g transform="translate(-939 -272)"><path d="M974.751 304.46 974.751 303.377 970.959 303.377 970.959 309.335 969.876 309.335 969.876 310.419 980.168 310.419 980.168 292.002 975.596 292.002 974.512 293.085 979.084 293.085 979.084 298.502 970.417 298.502 970.417 299.585 979.084 299.585 979.084 303.377 977.459 303.377 977.459 304.46 979.084 304.46 979.084 309.335 972.043 309.335 972.043 304.46 974.751 304.46Z" fill="#00B0F0"/><path d="M982.096 285.502 981.012 286.585 985.042 286.585 985.042 315.294 950.315 315.294C950.91 314.712 951.297 313.951 951.415 313.127L951.458 312.585 951.458 286.585 969.592 286.585 970.676 285.502 951.458 285.502 951.458 283.877C951.458 281.783 949.761 280.085 947.667 280.085 945.573 280.085 943.875 281.783 943.875 283.877L943.875 312.585 943.918 313.127C944.177 314.898 945.64 316.247 947.426 316.362L986.125 316.377 986.125 285.502ZM944.958 283.877C944.958 282.381 946.171 281.169 947.667 281.169 949.162 281.169 950.375 282.381 950.375 283.877L950.375 309.937C948.918 308.441 946.525 308.409 945.029 309.866 945.005 309.889 944.982 309.913 944.958 309.937ZM944.958 312.585C944.958 311.09 946.171 309.877 947.667 309.877 949.162 309.877 950.375 311.09 950.375 312.585 950.375 314.081 949.162 315.294 947.667 315.294 946.172 315.292 944.96 314.081 944.958 312.585Z" fill="#00B0F0"/><path d="M963.104 293.085 964.185 292.002 956.333 292.002 956.333 310.419 966.626 310.419 966.626 309.335 965.543 309.335 965.543 303.377 961.751 303.377 961.751 304.46 964.459 304.46 964.459 309.335 957.417 309.335 957.417 304.46 959.043 304.46 959.043 303.377 957.417 303.377 957.417 299.625 960.75 299.625 961.109 298.542 957.417 298.542 957.417 293.085 963.104 293.085Z" fill="#00B0F0"/><path d="M962.562 299.316 967.665 297.633 983.614 281.632C984.034 281.263 984.076 280.624 983.707 280.204 983.686 280.18 983.664 280.158 983.641 280.136L981.745 278.24C981.333 277.82 980.659 277.812 980.238 278.224 980.233 278.229 980.228 278.235 980.222 278.24L964.247 294.241ZM980.984 279.01 982.843 280.871 981.177 282.536 979.317 280.676ZM978.37 281.623 978.551 281.442 980.432 283.321 980.244 283.522 968.53 295.237C968.322 294.3 967.586 293.57 966.647 293.37ZM965.194 294.825 965.416 294.603C965.634 294.47 965.885 294.399 966.14 294.398 966.503 294.398 966.85 294.544 967.105 294.802 967.566 295.25 967.638 295.965 967.273 296.495L967.082 296.685 964.82 297.432 964.452 297.064Z" fill="#00B0F0"/></g></svg>