<svg width="52" height="52" xmlns="http://www.w3.org/2000/svg" xmlns:xlink="http://www.w3.org/1999/xlink" xml:space="preserve" overflow="hidden"><g transform="translate(31 -153)"><path d="M2.08012 190.781C2.65429 189.611 4.00846 186.99 5.24887 185.635 6.25535 184.501 7.05144 183.197 7.59971 181.783 8.17442 180.284 8.49281 178.699 8.54167 177.094L8.54167 176.629C8.54167 169.15 2.47885 163.087-5 163.087-12.4788 163.087-18.5417 169.15-18.5417 176.629L-18.5417 177.094C-18.4925 178.699-18.1739 180.283-17.5992 181.781-17.0509 183.195-16.2548 184.5-15.2483 185.634-14.0079 186.983-12.6537 189.611-12.0796 190.78-11.9045 191.131-11.5456 191.354-11.1528 191.354L1.15334 191.354C1.54577 191.354 1.90463 191.132 2.08012 190.781ZM1.12083 190.272-11.1208 190.272C-11.8196 188.851-13.1656 186.296-14.4364 184.914-15.3572 183.878-16.0853 182.686-16.5863 181.394-17.1162 180.014-17.411 178.555-17.4583 177.078L-17.4583 176.649C-17.4639 169.768-11.8906 164.186-5.01002 164.18 1.8705 164.175 7.45281 169.748 7.45834 176.629L7.45834 177.078C7.41262 178.553 7.11969 180.011 6.59167 181.39 6.09328 182.679 5.36875 183.868 4.45208 184.902 3.16075 186.312 1.81579 188.862 1.12083 190.272Z" fill="#00B0F0"/><path d="M1.5 195.178C1.5 194.879 1.2575 194.636 0.958334 194.636L-10.9583 194.636C-11.2575 194.636-11.5 194.879-11.5 195.178-11.5 195.477-11.2575 195.72-10.9583 195.72L0.958334 195.72C1.2575 195.72 1.5 195.477 1.5 195.178Z" fill="#00B0F0"/><path d="M-7.58862 198.816C-7.88779 198.815-8.1311 199.056-8.13213 199.356-8.13219 199.371-8.13154 199.386-8.13029 199.402-7.99379 201.13-6.48232 202.42-4.75441 202.283-3.21618 202.162-1.99451 200.94-1.87296 199.402-1.84902 199.104-2.07137 198.843-2.36956 198.819-2.38456 198.817-2.39956 198.817-2.41463 198.817ZM-4.99675 201.208C-5.84207 201.203-6.59943 200.685-6.91154 199.899L-3.08683 199.899C-3.39721 200.684-4.15278 201.202-4.99675 201.208Z" fill="#00B0F0"/><path d="M-5.54167 155.708-5.54167 160.583C-5.54167 160.882-5.29916 161.125-5 161.125-4.70084 161.125-4.45833 160.882-4.45833 160.583L-4.45833 155.708C-4.45833 155.409-4.70084 155.167-5 155.167-5.29916 155.167-5.54167 155.409-5.54167 155.708Z" fill="#00B0F0"/><path d="M-20.7083 176.833C-20.7083 176.534-20.9508 176.292-21.25 176.292L-26.125 176.292C-26.4242 176.292-26.6667 176.534-26.6667 176.833-26.6667 177.132-26.4242 177.375-26.125 177.375L-21.25 177.375C-20.9508 177.375-20.7083 177.132-20.7083 176.833Z" fill="#00B0F0"/><path d="M10.7083 176.833C10.7083 177.132 10.9508 177.375 11.25 177.375L16.125 177.375C16.4242 177.375 16.6667 177.132 16.6667 176.833 16.6667 176.534 16.4242 176.292 16.125 176.292L11.25 176.292C10.9508 176.292 10.7083 176.534 10.7083 176.833Z" fill="#00B0F0"/><path d="M-20.3205 161.513C-20.532 161.724-20.532 162.067-20.3205 162.279L-16.8733 165.726C-16.6581 165.934-16.3153 165.928-16.1074 165.713-15.9047 165.503-15.9047 165.17-16.1074 164.96L-19.5546 161.513C-19.7661 161.301-20.109 161.301-20.3205 161.513Z" fill="#00B0F0"/><path d="M9.55458 192.154C9.76979 192.362 10.1127 192.356 10.3205 192.141 10.5232 191.931 10.5232 191.598 10.3205 191.388L6.87333 187.941C6.6655 187.726 6.32262 187.72 6.10742 187.927 5.89222 188.135 5.88626 188.478 6.09409 188.693 6.09848 188.698 6.10292 188.702 6.10742 188.707Z" fill="#00B0F0"/><path d="M10.3205 161.513C10.109 161.301 9.76611 161.301 9.55458 161.513L6.10742 164.96C5.89222 165.168 5.88626 165.511 6.09409 165.726 6.30193 165.941 6.64486 165.947 6.86001 165.739 6.86456 165.735 6.86895 165.73 6.87333 165.726L10.3205 162.279C10.532 162.067 10.532 161.724 10.3205 161.513Z" fill="#00B0F0"/><path d="M-19.9375 192.313C-19.7939 192.313-19.6561 192.255-19.5546 192.154L-16.1074 188.707C-15.8922 188.499-15.8863 188.156-16.0941 187.941-16.3019 187.726-16.6449 187.72-16.86 187.927-16.8646 187.932-16.869 187.936-16.8733 187.941L-20.3205 191.388C-20.532 191.599-20.532 191.942-20.3204 192.154-20.2188 192.255-20.0811 192.313-19.9375 192.313Z" fill="#00B0F0"/></g></svg>