<svg width="52" height="52" xmlns="http://www.w3.org/2000/svg" xmlns:xlink="http://www.w3.org/1999/xlink" xml:space="preserve" overflow="hidden"><g transform="translate(-939 -329)"><path d="M949.292 355.542 964.458 355.542 964.458 364.208 965.542 364.208 965.542 355.542 980.708 355.542 980.708 364.208 981.792 364.208 981.792 354.458 965.542 354.458 965.542 345.792 964.458 345.792 964.458 354.458 948.208 354.458 948.208 364.208 949.292 364.208 949.292 355.542Z" fill="#00B0F0"/><path d="M970.417 336.583 959.583 336.583 959.583 344.167 970.417 344.167ZM969.333 343.083 960.667 343.083 960.667 337.667 969.333 337.667Z" fill="#00B0F0"/><path d="M959.583 365.833 959.583 373.417 970.417 373.417 970.417 365.833ZM969.333 372.333 960.667 372.333 960.667 366.917 969.333 366.917Z" fill="#00B0F0"/><path d="M975.833 373.417 986.667 373.417 986.667 365.833 975.833 365.833ZM976.917 366.917 985.583 366.917 985.583 372.333 976.917 372.333Z" fill="#00B0F0"/><path d="M954.167 365.833 943.333 365.833 943.333 373.417 954.167 373.417ZM953.083 372.333 944.417 372.333 944.417 366.917 953.083 366.917Z" fill="#00B0F0"/></g></svg>