<svg width="52" height="52" xmlns="http://www.w3.org/2000/svg" xmlns:xlink="http://www.w3.org/1999/xlink" xml:space="preserve" overflow="hidden"><g transform="translate(26 -272)"><path d="M-3.25 298C-3.25 299.795-1.79492 301.25 0 301.25 1.79492 301.25 3.25 299.795 3.25 298 3.25 296.205 1.79492 294.75 0 294.75-1.79416 294.752-3.24821 296.206-3.25 298ZM2.16667 298C2.16667 299.197 1.1966 300.167 0 300.167-1.19659 300.167-2.16667 299.197-2.16667 298-2.16667 296.803-1.19659 295.833 0 295.833 1.1966 295.833 2.16667 296.803 2.16667 298Z" fill="#00B0F0"/><path d="M24.375 317.5C20.4518 317.499 16.6935 315.922 13.9436 313.124 22.2433 305.434 22.7374 292.471 15.0471 284.171 7.3567 275.871-5.60582 275.377-13.9056 283.068-22.2053 290.758-22.6994 303.721-15.009 312.02-7.60538 320.011 4.75643 320.81 13.1278 313.841 16.0849 316.872 20.1401 318.582 24.375 318.583ZM0 317.5C-10.7696 317.5-19.5 308.77-19.5 298-19.5 287.23-10.7696 278.5 0 278.5 10.7695 278.5 19.5 287.23 19.5 298 19.4881 308.765 10.7646 317.488 0 317.5Z" fill="#00B0F0"/><path d="M0 292.042C2.69241 292.042 4.875 289.859 4.875 287.167 4.875 284.474 2.69241 282.292 0 282.292-2.69241 282.292-4.875 284.474-4.875 287.167-4.87202 289.858-2.69116 292.039 0 292.042ZM0 290.958C-1.1323 290.959-2.20556 290.453-2.925 289.579-1.03404 288.908 1.03025 288.908 2.92121 289.579 2.20247 290.452 1.13095 290.958 0 290.958ZM-3.79167 287.167C-3.79194 285.073-2.09451 283.375-0.000432968 283.375 2.09365 283.374 3.7914 285.072 3.79167 287.166 3.79172 287.672 3.69043 288.173 3.49375 288.639 1.24345 287.782-1.24345 287.782-3.49375 288.639-3.69092 288.174-3.79226 287.673-3.79167 287.167Z" fill="#00B0F0"/><path d="M9.75 297.458C12.4424 297.458 14.625 295.276 14.625 292.583 14.625 289.891 12.4424 287.708 9.75 287.708 7.05759 287.708 4.875 289.891 4.875 292.583 4.87798 295.275 7.05884 297.455 9.75 297.458ZM9.75 288.792C11.8441 288.792 13.5417 290.489 13.5417 292.583 13.5417 294.677 11.8441 296.375 9.75 296.375 9.71425 296.375 9.67958 296.371 9.64437 296.37 9.33471 294.123 8.24438 292.057 6.56446 290.534 7.2611 289.45 8.461 288.793 9.75 288.792ZM8.52475 296.168C6.62404 295.528 5.55745 293.511 6.09754 291.58 7.36076 292.822 8.20863 294.425 8.52475 296.168Z" fill="#00B0F0"/><path d="M9.75 298.542C7.05759 298.542 4.875 300.724 4.875 303.417 4.875 306.109 7.05759 308.292 9.75 308.292 12.4424 308.292 14.625 306.109 14.625 303.417 14.622 300.725 12.4412 298.545 9.75 298.542ZM6.00383 303.974C5.72666 302.214 6.72669 300.502 8.39584 299.879 7.99814 301.441 7.16928 302.86 6.00383 303.974ZM6.36025 305.105C7.31017 304.289 8.09337 303.297 8.66667 302.184L8.66667 302.875C8.66889 304.33 8.87342 305.777 9.27442 307.175 8.01857 307.014 6.92559 306.238 6.36025 305.105ZM10.4 307.149C9.9723 305.764 9.75325 304.324 9.75 302.875L9.75 299.625C11.844 299.636 13.533 301.342 13.5223 303.436 13.5131 305.265 12.1999 306.826 10.4 307.149Z" fill="#00B0F0"/><path d="M0 303.958C-2.69241 303.958-4.875 306.141-4.875 308.833-4.875 311.526-2.69241 313.708 0 313.708 2.69241 313.708 4.875 311.526 4.875 308.833 4.87202 306.142 2.69116 303.961 0 303.958ZM0 305.042C0.93508 305.042 1.83679 305.389 2.53013 306.017 0.880047 306.514-0.880045 306.514-2.53012 306.017-1.83679 305.389-0.935078 305.042 0 305.042ZM0 312.625C-2.08959 312.629-3.78717 310.939-3.79167 308.85-3.79313 308.167-3.60972 307.496-3.26083 306.909-1.15348 307.669 1.15348 307.669 3.26083 306.909 4.32824 308.705 3.73723 311.027 1.94085 312.094 1.35368 312.443 0.682987 312.626 0 312.625Z" fill="#00B0F0"/><path d="M-9.75 298.542C-12.4424 298.542-14.625 300.724-14.625 303.417-14.625 306.109-12.4424 308.292-9.75 308.292-7.05759 308.292-4.875 306.109-4.875 303.417-4.87798 300.725-7.05884 298.545-9.75 298.542ZM-9.75 307.208C-11.8441 307.208-13.5417 305.511-13.5417 303.417-13.5417 301.323-11.8441 299.625-9.75 299.625-9.68337 299.625-9.61837 299.632-9.55229 299.635-9.13174 301.765-8.0073 303.692-6.35971 305.106-6.9999 306.392-8.31269 307.207-9.75 307.208ZM-8.39583 299.88C-6.72582 300.503-5.72607 302.217-6.00492 303.978-7.16988 302.863-7.9983 301.443-8.39583 299.88Z" fill="#00B0F0"/><path d="M-9.75 297.458C-7.05759 297.458-4.875 295.276-4.875 292.583-4.875 289.891-7.05759 287.708-9.75 287.708-12.4424 287.708-14.625 289.891-14.625 292.583-14.622 295.275-12.4412 297.455-9.75 297.458ZM-6.09862 291.576C-5.55614 293.508-6.62247 295.527-8.52421 296.168-8.21015 294.423-7.36266 292.819-6.09862 291.576ZM-9.75 288.792C-8.46056 288.793-7.26039 289.45-6.56392 290.535-8.2439 292.058-9.33362 294.123-9.64167 296.37-9.67742 296.37-9.71208 296.375-9.75 296.375-11.8441 296.375-13.5417 294.677-13.5417 292.583-13.5417 290.489-11.8441 288.792-9.75 288.792Z" fill="#00B0F0"/></g></svg>