<svg width="51" height="52" xmlns="http://www.w3.org/2000/svg" xmlns:xlink="http://www.w3.org/1999/xlink" xml:space="preserve" overflow="hidden"><g transform="translate(-379 -221)"><path d="M29.75 17 37.7188 17 37.7188 18.0625 29.75 18.0625Z" fill="#00B0F0" transform="matrix(1 0 0 1.01961 379 221)"/><path d="M29.75 20.1875 37.7188 20.1875 37.7188 21.25 29.75 21.25Z" fill="#00B0F0" transform="matrix(1 0 0 1.01961 379 221)"/><path d="M29.75 23.375 35.0625 23.375 35.0625 24.4375 29.75 24.4375Z" fill="#00B0F0" transform="matrix(1 0 0 1.01961 379 221)"/><path d="M46.2188 12.75 43.0312 12.75 43.0312 10.4125C43.0313 10.1856 42.8872 9.98368 42.6727 9.90994 37.1026 8.05056 31.0825 8.03006 25.5 9.8515 19.9175 8.0299 13.8974 8.05019 8.32734 9.90941 8.11256 9.9832 7.96843 10.1854 7.96875 10.4125L7.96875 12.75 4.78125 12.75C4.48785 12.75 4.25 12.9878 4.25 13.2812L4.25 38.7812C4.25 39.0747 4.48785 39.3125 4.78125 39.3125L21.8344 39.3125C22.0572 40.247 22.8924 40.9064 23.8531 40.9062L27.1469 40.9062C28.1076 40.9064 28.9428 40.247 29.1656 39.3125L46.2188 39.3125C46.5122 39.3125 46.75 39.0747 46.75 38.7812L46.75 13.2812C46.75 12.9878 46.5122 12.75 46.2188 12.75ZM41.9688 10.795 41.9688 35.1794C36.7729 33.6048 31.2271 33.6048 26.0312 35.1794L26.0312 10.795C31.2167 9.15163 36.7833 9.15163 41.9688 10.795ZM9.03125 10.795C14.2167 9.15163 19.7833 9.15163 24.9688 10.795L24.9688 35.1794C19.7729 33.6048 14.2271 33.6048 9.03125 35.1794ZM45.6875 38.25 28.6875 38.25C28.3941 38.25 28.1562 38.4878 28.1562 38.7812L28.1562 38.8344C28.1562 39.3918 27.7043 39.8438 27.1469 39.8438L23.8531 39.8438C23.2957 39.8438 22.8438 39.3918 22.8438 38.8344L22.8438 38.7812C22.8438 38.4878 22.6059 38.25 22.3125 38.25L5.3125 38.25 5.3125 13.8125 7.96875 13.8125 7.96875 35.9125C7.96864 36.2059 8.20643 36.4438 8.49984 36.4439 8.55865 36.4439 8.61703 36.4342 8.67266 36.4151 14.0779 34.6124 19.9221 34.6124 25.3273 36.4151 25.3361 36.417 25.345 36.4185 25.3539 36.4193 25.3932 36.4308 25.4336 36.4376 25.4745 36.4395 25.483 36.4395 25.4915 36.4437 25.5 36.4437 25.5085 36.4437 25.5133 36.4411 25.5197 36.4406 25.5601 36.4393 25.6002 36.4332 25.6392 36.4225 25.6477 36.4225 25.6567 36.4193 25.6658 36.4167L25.6727 36.4167C31.0779 34.614 36.9221 34.614 42.3273 36.4167 42.383 36.435 42.4414 36.4442 42.5 36.4437 42.7934 36.4437 43.0312 36.2059 43.0312 35.9125L43.0312 13.8125 45.6875 13.8125Z" fill="#00B0F0" transform="matrix(1 0 0 1.01961 379 221)"/></g></svg>