<svg width="51" height="52" xmlns="http://www.w3.org/2000/svg" xmlns:xlink="http://www.w3.org/1999/xlink" xml:space="preserve" overflow="hidden"><g transform="translate(-374 -397)"><path d="M47.4497 23.8351 27.1644 3.55034C26.3346 2.72078 24.9895 2.72078 24.1597 3.55034L22.6567 5.05272 21.9061 4.30313C20.8679 3.26787 19.1878 3.26787 18.1496 4.30313L13.5017 8.95103C12.7529 9.69956 12.5202 10.8213 12.9094 11.806L19.7694 29.1194C20.0034 29.7103 19.864 30.3838 19.4145 30.8332L17.0207 33.227 16.2706 32.4753C15.6482 31.8532 14.6394 31.8532 14.017 32.4753L3.12322 43.3691C2.50077 43.9915 2.50068 45.0006 3.12303 45.623 3.12309 45.6231 3.12316 45.6232 3.12322 45.6232L5.37678 47.8768C5.99914 48.4992 7.00825 48.4993 7.63066 47.877 7.63077 47.8769 7.63082 47.8768 7.63088 47.8768L18.5247 36.983C19.1468 36.3606 19.1468 35.3518 18.5247 34.7294L17.7735 33.9782 20.1673 31.5844C20.9164 30.8353 21.1487 29.7128 20.7586 28.7279L13.8986 11.415C13.6642 10.824 13.8034 10.1502 14.2529 9.70063L18.9008 5.05272C19.5232 4.43027 20.5323 4.43018 21.1547 5.05253 21.1548 5.05259 21.1549 5.05266 21.1549 5.05272L21.9056 5.80391 20.4032 7.30681C19.5733 8.13668 19.5733 9.48212 20.4031 10.312 20.4031 10.312 20.4031 10.3121 20.4032 10.3121L40.6879 30.5968C41.5178 31.4267 42.8632 31.4267 43.6931 30.5969 43.6931 30.5969 43.6931 30.5969 43.6932 30.5968L47.4497 26.8403C48.2795 26.0105 48.2796 24.665 47.4497 23.8351 47.4497 23.8351 47.4497 23.8351 47.4497 23.8351ZM17.7735 36.2312 6.87969 47.1256C6.67234 47.3332 6.33595 47.3334 6.12839 47.126 6.12823 47.1259 6.12813 47.1258 6.12797 47.1256L3.87441 44.8715C3.66702 44.664 3.66702 44.3278 3.87441 44.1203L14.7687 33.2265C14.9762 33.0191 15.3125 33.0191 15.5199 33.2265L17.774 35.4806C17.9814 35.688 17.9814 36.0243 17.774 36.2318ZM46.6969 26.0892 42.942 29.8456C42.5271 30.2604 41.8545 30.2604 41.4396 29.8456L21.1544 9.5625C20.7396 9.14759 20.7396 8.47503 21.1544 8.06013L24.9108 4.30313C25.3258 3.88835 25.9983 3.88835 26.4132 4.30313L46.6969 24.5868C47.1117 25.0017 47.1117 25.6742 46.6969 26.0892Z" fill="#00B0F0" transform="matrix(1 0 0 1.01961 374 397)"/></g></svg>