<svg width="52" height="52" xmlns="http://www.w3.org/2000/svg" xmlns:xlink="http://www.w3.org/1999/xlink" xml:space="preserve" overflow="hidden"><g transform="translate(-378 -281)"><path d="M422.417 309.004 418.679 302.504 418.679 302.233C418.908 296.267 415.852 290.654 410.717 287.608 407.926 286.066 404.78 285.282 401.592 285.333 398.402 285.281 395.255 286.066 392.462 287.608 387.327 290.654 384.271 296.267 384.5 302.233 384.497 304.465 384.939 306.675 385.8 308.733 386.825 311.11 389.17 312.645 391.758 312.633L401.833 312.633C403.626 312.639 405.078 314.091 405.083 315.883L405.083 318.483C405.091 319.818 405.904 321.017 407.142 321.517L407.9 321.842 412.829 323.737C415.061 324.61 417.578 323.508 418.451 321.276 418.455 321.266 418.459 321.256 418.462 321.246 418.661 320.747 418.754 320.212 418.733 319.675L418.733 312.796 421.117 312.796C422.471 312.633 423.717 311.008 422.417 309.004ZM421.782 311.129C421.641 311.43 421.366 311.646 421.041 311.712L417.65 311.712 417.65 319.675C417.669 320.06 417.609 320.445 417.472 320.806L417.46 320.833 417.45 320.86C416.808 322.539 414.925 323.38 413.246 322.737 413.237 322.734 413.227 322.73 413.218 322.726L408.308 320.838 407.569 320.521 407.552 320.514 407.537 320.508C406.715 320.17 406.175 319.372 406.167 318.483L406.167 315.883C406.164 313.491 404.225 311.553 401.833 311.55L391.758 311.55C389.607 311.557 387.658 310.285 386.798 308.313 385.996 306.387 385.583 304.32 385.583 302.233L385.583 302.214 385.583 302.194C385.365 296.624 388.218 291.384 393.014 288.544 395.638 287.097 398.596 286.363 401.592 286.417 404.587 286.363 407.545 287.096 410.169 288.542 414.965 291.381 417.817 296.622 417.599 302.192L417.599 302.791 417.743 303.042 421.48 309.542 421.495 309.567 421.51 309.591C421.865 310.02 421.969 310.604 421.784 311.129Z" fill="#00B0F0"/><path d="M398.312 306.404 398.312 302.342 394.25 302.342C394.257 304.583 396.072 306.398 398.312 306.404Z" fill="#00B0F0"/><path d="M398.312 298.333 398.312 302.342 402.321 302.342C402.33 300.137 400.551 298.343 398.346 298.333 398.335 298.333 398.324 298.333 398.312 298.333Z" fill="#00B0F0"/><path d="M413.75 300.175C412.553 300.175 411.583 301.145 411.583 302.342 411.583 303.538 412.553 304.508 413.75 304.508 414.947 304.508 415.917 303.538 415.917 302.342 415.93 301.158 414.98 300.188 413.797 300.175 413.781 300.175 413.766 300.175 413.75 300.175ZM413.75 303.425C413.152 303.425 412.667 302.94 412.667 302.342 412.667 301.743 413.152 301.258 413.75 301.258 414.348 301.258 414.833 301.743 414.833 302.342 414.847 302.927 414.383 303.412 413.798 303.425 413.782 303.425 413.766 303.425 413.75 303.425Z" fill="#00B0F0"/><path d="M402.375 316.75 392.083 316.75C391.784 316.75 391.542 316.992 391.542 317.292 391.542 317.591 391.784 317.833 392.083 317.833L402.375 317.833C402.674 317.833 402.917 317.591 402.917 317.292 402.917 316.992 402.674 316.75 402.375 316.75Z" fill="#00B0F0"/><path d="M402.375 321.625 392.083 321.625C391.784 321.625 391.542 321.867 391.542 322.167 391.542 322.466 391.784 322.708 392.083 322.708L402.375 322.708C402.674 322.708 402.917 322.466 402.917 322.167 402.917 321.867 402.674 321.625 402.375 321.625Z" fill="#00B0F0"/><path d="M402.375 326.5 392.083 326.5C391.784 326.5 391.542 326.742 391.542 327.042 391.542 327.341 391.784 327.583 392.083 327.583L402.375 327.583C402.674 327.583 402.917 327.341 402.917 327.042 402.917 326.742 402.674 326.5 402.375 326.5Z" fill="#00B0F0"/><path d="M398.312 296.383C395.022 296.383 392.354 299.051 392.354 302.342 392.354 305.632 395.022 308.3 398.312 308.3 401.603 308.3 404.271 305.632 404.271 302.342 404.28 299.061 401.628 296.393 398.347 296.383 398.336 296.383 398.324 296.383 398.312 296.383ZM398.312 307.217C395.62 307.217 393.438 305.034 393.438 302.342 393.438 299.649 395.62 297.467 398.312 297.467 401.005 297.467 403.188 299.649 403.188 302.342 403.185 305.033 401.004 307.214 398.312 307.217Z" fill="#00B0F0"/></g></svg>