<svg width="52" height="52" xmlns="http://www.w3.org/2000/svg" xmlns:xlink="http://www.w3.org/1999/xlink" xml:space="preserve" overflow="hidden"><g transform="translate(-939 -158)"><path d="M988.623 179.504 965.003 171.054 941.383 179.504 946.042 181.139 946.042 190.554C946.042 190.853 946.284 191.096 946.583 191.096 946.883 191.096 947.125 190.853 947.125 190.554L947.125 181.519 950.937 182.857 950.937 190.657C950.937 193.831 957.379 196.512 965.003 196.512 972.628 196.512 979.07 193.831 979.07 190.658L979.07 182.857ZM965.003 172.205 985.367 179.49C985.375 179.493 985.375 179.497 985.367 179.5L965.003 186.644 944.642 179.5C944.634 179.497 944.634 179.493 944.642 179.49ZM977.986 190.658C977.986 192.864 972.315 195.429 965.003 195.429 957.691 195.429 952.021 192.864 952.021 190.658L952.021 183.237 965.003 187.792 977.986 183.236Z" fill="#00B0F0"/></g></svg>